<?xml version="1.0" encoding="UTF-8"?><svg id="Layer_1" xmlns="http://www.w3.org/2000/svg" viewBox="0 0 150.29 95.42"><defs><style>.cls-1{fill:#d97757;}</style></defs><path class="cls-1" d="M37.38,95.42l.03-18.44h9.55s.09,18.44.09,18.44h9.11l-.04-18.51,37.87.03.17,18.48h9.06l-.06-18.55,9.77.12.09,18.43h9.05l.12-18.42,9.37-.16.07-19.8h18.66l-.14-18.46-18.53-.16L131.57,0H19.21s-.15,38.73-.15,38.73H0l.06,18.26,18.72.14s.01,17.37.09,19.89h9.17l.1,18.39h9.25Z"/><polygon points="47.04 38.52 37.24 38.46 37.3 18.66 46.96 18.58 47.04 38.52"/><polygon points="103.23 18.63 103.15 38.55 113.04 38.47 112.93 18.49 103.23 18.63"/></svg>